<svg width="1111" height="152" viewBox="0 0 1111 152" fill="none" xmlns="http://www.w3.org/2000/svg">
<g opacity="0.9">
<path fill-rule="evenodd" clip-rule="evenodd" d="M242 105H248.171C252.572 105 255.044 108.003 255.044 111.666C255.044 114.161 253.998 116.472 251.774 117.561L255.57 124.386H250.65L246.346 116.05V124.386H242V105ZM246.346 109.25V114.35H247.845C249.694 114.35 250.619 113.072 250.619 111.721C250.619 110.125 249.67 109.25 247.845 109.25H246.346Z" fill="#B3B3B3"/>
<path fill-rule="evenodd" clip-rule="evenodd" d="M254.924 117.53C254.924 113.773 257.709 110.699 261.495 110.699C265.336 110.699 268.072 113.664 268.072 117.53V118.946H258.989C259.39 120.156 260.318 120.81 261.525 120.81C262.599 120.81 263.206 120.392 263.631 119.684H267.969C266.919 122.625 264.96 124.355 261.525 124.355C257.357 124.355 254.924 121.336 254.924 117.53ZM259.164 115.77H263.933C263.502 114.796 262.653 114.293 261.573 114.293C260.469 114.293 259.613 114.85 259.164 115.77ZM267.416 110.96H271.857L274.193 118.081L276.499 110.96H280.868L276.299 124.095H272.082L267.416 110.96ZM283.776 105C285.256 105 286.263 106.071 286.263 107.596C286.263 109.12 285.256 110.173 283.776 110.173C282.326 110.173 281.318 109.12 281.318 107.596C281.318 106.071 282.326 105 283.776 105ZM281.621 110.96H285.959V124.095H281.621V110.96ZM286.889 117.53C286.889 113.773 289.674 110.699 293.46 110.699C297.301 110.699 300.037 113.664 300.037 117.53V118.946H290.954C291.354 120.156 292.283 120.81 293.484 120.81C294.564 120.81 295.165 120.392 295.596 119.684H299.934C298.878 122.625 296.924 124.355 293.484 124.355C289.322 124.355 286.889 121.336 286.889 117.53ZM291.129 115.77H295.892C295.467 114.796 294.612 114.293 293.538 114.293C292.434 114.293 291.578 114.85 291.129 115.77ZM299.484 110.96H303.75L305.855 118.051L308.24 110.96H311.929L314.162 118.051L316.395 110.96H320.63L316.243 124.095H312.275L309.993 117.24L307.609 124.095H303.647L299.484 110.96ZM320.381 119.63H324.671V119.709C324.671 120.392 325.095 120.653 325.823 120.653C326.63 120.653 326.903 120.338 326.903 119.89C326.903 119.37 325.823 119.285 324.543 118.97C322.814 118.632 320.533 117.845 320.533 114.929C320.533 112.509 322.486 110.699 325.672 110.699C328.833 110.699 330.896 112.351 330.944 115.134H326.752V115.11C326.752 114.427 326.351 114.166 325.672 114.166C324.998 114.166 324.695 114.481 324.695 114.85C324.695 115.346 325.823 115.425 327.079 115.74C329.088 116.109 331.096 116.974 331.096 119.842C331.096 122.28 329.288 124.355 325.823 124.355C322.013 124.355 320.508 122.492 320.381 119.63ZM334.178 119.206C335.634 119.206 336.635 120.283 336.635 121.808C336.635 123.333 335.634 124.386 334.178 124.386C332.698 124.386 331.721 123.333 331.721 121.808C331.721 120.283 332.722 119.206 334.178 119.206ZM337.316 117.53C337.316 113.743 340.077 110.699 343.918 110.699C347.504 110.699 350.265 113.271 350.538 116.768H346.248C345.999 115.582 345.095 114.82 343.918 114.82C342.535 114.82 341.479 115.975 341.479 117.53C341.479 119.128 342.462 120.205 343.942 120.205C345.144 120.205 346.023 119.394 346.248 118.184H350.538C350.289 121.729 347.552 124.355 343.918 124.355C340.029 124.355 337.316 121.415 337.316 117.53ZM351.217 117.53C351.217 113.743 353.978 110.699 357.812 110.699C361.574 110.699 364.414 113.743 364.414 117.53C364.414 121.312 361.653 124.355 357.812 124.355C353.978 124.355 351.217 121.312 351.217 117.53ZM360.244 117.531C360.244 116.006 359.195 114.82 357.811 114.82C356.434 114.82 355.402 116.006 355.402 117.531C355.402 119.049 356.434 120.205 357.811 120.205C359.195 120.205 360.244 119.049 360.244 117.531ZM365.342 110.96H369.577V112.539C370.335 111.353 371.512 110.699 372.914 110.699C374.595 110.699 375.802 111.407 376.482 112.745C377.258 111.462 378.563 110.699 380.092 110.699C382.901 110.699 384.485 112.539 384.485 115.715V124.095H380.165V116.689C380.165 115.322 379.74 114.56 378.636 114.56C377.659 114.56 377.058 115.292 377.058 116.871V124.095H372.738V116.689C372.738 115.322 372.289 114.56 371.209 114.56C370.232 114.56 369.607 115.292 369.607 116.871V124.095H365.342V110.96Z" fill="#B3B3B3"/>
</g>
<path d="M751.72 103.945H750V102.16H755.711V103.945H754.023V112.649H751.752L751.72 103.945Z" fill="#B3B3B3"/>
<path d="M756.943 102.191H759.247V106.4H760.869V102.191H763.173V112.681H760.869V108.217H759.247V112.681H756.943V102.191Z" fill="#B3B3B3"/>
<path d="M764.699 102.191H769.534V103.977H767.003V106.336H769.015V108.026H767.003V110.896H769.696V112.681H764.699V102.191Z" fill="#B3B3B3"/>
<path fill-rule="evenodd" clip-rule="evenodd" d="M773.264 102.191H776.151C778.098 102.191 779.039 102.925 779.039 104.551V105.284C779.039 106.4 778.423 106.942 777.449 107.165C778.585 107.389 779.299 108.026 779.299 109.365V110.035C779.299 111.98 778.228 112.681 776.249 112.681H773.264V102.191ZM775.924 106.432C776.573 106.432 776.832 106.177 776.832 105.412V104.742C776.832 103.945 776.508 103.786 775.924 103.786H775.437V106.432H775.924ZM776.962 109.875C776.962 110.736 776.67 111.087 775.989 111.087H775.437V107.962H775.924C776.67 107.962 776.962 108.186 776.962 109.142V109.875Z" fill="#B3B3B3"/>
<path d="M786.793 102.191V109.907C786.793 111.948 785.625 112.841 783.646 112.841C781.667 112.841 780.531 111.916 780.531 109.875V102.191H782.835V109.844C782.835 110.704 783.03 111.023 783.646 111.023C784.198 111.023 784.457 110.704 784.457 109.844V102.191H786.793Z" fill="#B3B3B3"/>
<path d="M787.994 109.907V109.557H790.233V109.971C790.233 110.832 790.46 111.087 791.012 111.087C791.498 111.087 791.725 110.8 791.725 110.131V110.003C791.725 109.078 791.206 108.759 790.233 108.154C788.838 107.293 788.124 106.496 788.124 104.774V104.71C788.124 102.957 789.162 102 791.012 102C792.829 102 793.834 102.861 793.867 104.71V105.029H791.693V104.678C791.693 103.945 791.401 103.754 791.012 103.754C790.59 103.754 790.363 103.977 790.363 104.583V104.646C790.363 105.38 790.687 105.667 791.628 106.273C792.894 107.07 793.997 107.707 793.997 109.748V109.939C793.997 111.852 792.926 112.809 791.044 112.809C789.162 112.841 788.027 112.012 787.994 109.907Z" fill="#B3B3B3"/>
<path d="M795.328 102.191H797.632V112.681H795.328V102.191Z" fill="#B3B3B3"/>
<path d="M799.221 102.191H801.687L803.504 107.803V102.191H805.515V112.681H803.341L801.232 106.177V112.681H799.253V102.191H799.221Z" fill="#B3B3B3"/>
<path d="M807.074 102.191H811.909V103.977H809.378V106.336H811.39V108.026H809.378V110.896H812.071V112.681H807.074V102.191Z" fill="#B3B3B3"/>
<path d="M813.107 109.907V109.557H815.346V109.971C815.346 110.832 815.573 111.087 816.125 111.087C816.612 111.087 816.839 110.8 816.839 110.131V110.003C816.839 109.078 816.32 108.759 815.346 108.154C813.951 107.293 813.237 106.496 813.237 104.774V104.71C813.237 102.957 814.275 102 816.125 102C817.942 102 818.948 102.861 818.98 104.71V105.029H816.806V104.678C816.806 103.945 816.514 103.754 816.125 103.754C815.703 103.754 815.476 103.977 815.476 104.583V104.646C815.476 105.38 815.8 105.667 816.741 106.273C818.007 107.07 819.11 107.707 819.11 109.748V109.939C819.11 111.852 818.039 112.809 816.157 112.809C814.275 112.841 813.107 112.012 813.107 109.907Z" fill="#B3B3B3"/>
<path d="M820.117 109.907V109.557H822.356V109.971C822.356 110.832 822.583 111.087 823.135 111.087C823.621 111.087 823.849 110.8 823.849 110.131V110.003C823.849 109.078 823.329 108.759 822.356 108.154C820.961 107.293 820.247 106.496 820.247 104.774V104.71C820.247 102.957 821.285 102 823.135 102C824.952 102 825.958 102.861 825.99 104.71V105.029H823.816V104.678C823.816 103.945 823.524 103.754 823.135 103.754C822.713 103.754 822.486 103.977 822.486 104.583V104.646C822.486 105.38 822.81 105.667 823.751 106.273C825.017 107.07 826.12 107.707 826.12 109.748V109.939C826.12 111.852 825.049 112.809 823.167 112.809C821.285 112.841 820.117 112.012 820.117 109.907Z" fill="#B3B3B3"/>
<path d="M760.416 125.786V124.032C760.611 124.064 760.805 124.128 761.13 124.128C761.714 124.128 762.038 123.873 762.038 123.139V115.423H764.342V123.235C764.342 125.052 763.401 126.009 761.649 126.009C761.032 126.009 760.676 125.913 760.416 125.786Z" fill="#B3B3B3"/>
<path fill-rule="evenodd" clip-rule="evenodd" d="M765.705 118.42V122.948C765.705 125.084 766.97 126.073 768.95 126.041C770.929 126.041 772.227 125.052 772.227 122.852V118.389C772.227 116.189 770.896 115.264 768.95 115.264C767.068 115.264 765.705 116.252 765.705 118.42ZM769.891 118.42V122.916C769.891 123.873 769.599 124.255 768.95 124.255C768.333 124.255 768.041 123.873 768.041 122.916V118.42C768.041 117.496 768.333 117.113 768.95 117.113C769.599 117.113 769.891 117.496 769.891 118.42Z" fill="#B3B3B3"/>
<path d="M779.916 115.423V123.139C779.916 125.18 778.748 126.073 776.769 126.073C774.79 126.073 773.654 125.148 773.654 123.107V115.423H775.958V123.076C775.958 123.936 776.153 124.255 776.769 124.255C777.321 124.255 777.58 123.936 777.58 123.076V115.423H779.916Z" fill="#B3B3B3"/>
<path fill-rule="evenodd" clip-rule="evenodd" d="M784.328 115.423H781.408V125.913H783.712V121.545H784.134L785.302 125.913H787.703L786.308 121.194C787.021 120.876 787.411 120.302 787.411 119.122V118.038C787.411 116.284 786.567 115.423 784.328 115.423ZM785.173 119.058C785.173 119.823 784.881 120.078 784.264 120.078H783.713V117.145H784.264C784.913 117.145 785.173 117.4 785.173 118.102V119.058Z" fill="#B3B3B3"/>
<path d="M788.871 115.423H791.337L793.154 121.035V115.423H795.166V125.913H792.992L790.883 119.409V125.913H788.904V115.423H788.871Z" fill="#B3B3B3"/>
<path fill-rule="evenodd" clip-rule="evenodd" d="M798.637 123.777H800.325L800.584 125.913H802.92L801.233 115.423H797.924L796.236 125.913H798.345L798.637 123.777ZM800.131 122.215H798.865L799.514 117.432L800.131 122.215Z" fill="#B3B3B3"/>
<path d="M804.057 115.423H806.36V124.096H808.761V125.913H804.057V115.423Z" fill="#B3B3B3"/>
<path d="M809.701 123.171V122.821H811.94V123.235C811.94 124.096 812.167 124.351 812.719 124.351C813.205 124.351 813.433 124.064 813.433 123.394V123.267C813.433 122.342 812.913 122.023 811.94 121.418C810.545 120.557 809.831 119.76 809.831 118.038V117.974C809.831 116.22 810.869 115.264 812.719 115.264C814.536 115.264 815.542 116.125 815.574 117.974V118.293H813.4V117.942C813.4 117.209 813.108 117.018 812.719 117.018C812.297 117.018 812.07 117.241 812.07 117.847V117.91C812.07 118.644 812.394 118.931 813.335 119.536C814.601 120.334 815.704 120.971 815.704 123.012V123.203C815.704 125.116 814.633 126.073 812.751 126.073C810.902 126.073 809.734 125.244 809.701 123.171Z" fill="#B3B3B3"/>
<path fill-rule="evenodd" clip-rule="evenodd" d="M953.397 119.687V111.495L953.882 110.974L953.688 110.808L953.276 111.235L951.07 109.293L948.96 111.519V105.173L948.912 105.15L946.342 107.825V118.29L945.469 119.19V119.285L947.724 121.298L949.687 119.214V119.166L948.96 118.527V111.921L949.469 111.376L950.778 112.536V121.013C950.778 122.197 950.124 123.31 948.984 123.855L949.032 123.949C951.336 123.5 953.397 121.96 953.397 119.687ZM943.214 109.34V118.101C944.426 117.462 945.274 116.349 945.686 115.094L945.783 115.141C945.517 118.267 943.335 121.392 939.94 121.392C936.522 121.392 934 118.906 934 114.928C934 111.945 935.988 110.074 938.534 108.393C938.17 108.298 937.782 108.251 937.394 108.251C935.648 108.251 934.63 109.411 934.63 110.595H934.485C934.46 110.429 934.46 110.263 934.46 110.098C934.46 107.99 935.6 105.433 938.364 105.433C939.216 105.433 939.971 105.8 940.756 106.181C941.603 106.592 942.483 107.019 943.553 107.019C944.377 107.019 945.395 106.64 945.807 105.764H945.88C945.856 107.304 945.371 108.89 943.214 109.34ZM944.522 118.314C943.31 119.569 942.001 120.635 940.304 120.635C937.152 120.635 934.727 118.219 934.727 114.715C934.727 112.712 935.553 111.604 936.49 110.347L936.57 110.24H936.473L936.425 110.287C935.786 110.909 934.267 112.388 934.267 114.857C934.267 118.74 936.764 121.132 940.037 121.132C942.316 121.132 943.868 119.593 944.571 118.338L944.522 118.314ZM942.438 108.558C944.208 108.558 945.081 107.588 945.493 106.83L945.541 106.854C945.372 107.848 944.451 109.151 942.414 109.151C941.453 109.151 940.669 108.865 939.888 108.58C939.111 108.296 938.337 108.014 937.395 108.014C936.255 108.014 935.552 108.464 935.092 108.914L935.067 108.866C935.407 108.227 936.304 107.374 937.613 107.374C938.29 107.374 939.011 107.64 939.77 107.919C940.614 108.23 941.506 108.558 942.438 108.558ZM938.752 108.464C937.515 109.719 936.376 111.092 936.376 113.768C936.376 115.236 936.885 116.751 938.025 117.698L938.727 117.343V110.998L938.073 111.329L937.952 111.092L941.346 109.292C940.805 109.181 940.297 108.996 939.798 108.815L939.798 108.815C939.447 108.687 939.102 108.562 938.752 108.464ZM942.946 109.387L942.946 109.387H942.946V109.387ZM942.413 109.411C942.607 109.411 942.776 109.411 942.946 109.387V118.219C942.291 118.503 941.564 118.669 940.74 118.669C939.721 118.669 938.921 118.385 938.267 117.912L941.443 116.23V109.316C941.758 109.387 942.074 109.411 942.413 109.411ZM939.455 110.595L938.994 110.856V117.201L939.455 116.965V110.595ZM946.608 119.237V119.19L947.117 118.693V107.422L946.608 107.943V118.456L945.832 119.214V119.261L947.723 120.919L948.062 120.54L946.608 119.237ZM949.978 110.832L951.554 112.157H951.554V120.563C951.554 121.392 951.336 122.031 950.73 122.458L950.706 122.434C950.924 122.102 951.045 121.511 951.045 120.942V112.418L949.639 111.187L949.978 110.832ZM957.251 116.254V117.461L959.603 119.261L960.961 117.84L961.155 118.03L958.003 121.321L954.803 118.811L954.318 119.308L954.124 119.119L954.682 118.551V112.56L959.264 109.293L961.665 113.081L957.251 116.254ZM955.457 112.323V118.338L958.343 120.564L957.955 120.966L954.948 118.575V112.679L955.457 112.323ZM957.301 111.045L957.252 111.069V115.923L959.41 114.383L957.301 111.045ZM957.493 110.879L957.93 110.571L960.063 113.91L959.627 114.218L957.493 110.879Z" fill="#B3B3B3"/>
<path fill-rule="evenodd" clip-rule="evenodd" d="M976.602 120.981L973.347 118.109L970.864 120.981L967.492 118.014V113.324H966.836C966.25 113.324 965.946 113.707 965.805 114.161H965.735C965.688 113.97 965.618 113.635 965.618 113.252C965.618 112.63 965.782 111.003 967.492 111.003V106.887C967.492 106.521 967.295 106.257 967.084 105.975C966.841 105.649 966.579 105.298 966.579 104.733C966.579 103.37 967.843 102.03 970.162 101.192L970.256 101.263C969.412 101.766 968.967 102.245 968.967 103.274C968.967 103.974 969.262 104.284 969.59 104.629C970.002 105.062 970.466 105.55 970.466 106.935V107.892L973.206 104.949L976.087 107.844L978.804 104.949L981.427 107.581V116.434L976.602 120.981ZM968.241 117.631V112.582H966.929C966.25 112.582 965.946 113.037 965.898 113.444L965.922 113.468C966.156 113.205 966.39 113.061 966.929 113.061H967.748V117.895L970.84 120.623L971.191 120.192L968.241 117.631ZM967.747 105.449C967.979 105.756 968.24 106.102 968.24 106.648V111.003H967.748V106.768C967.748 106.396 967.533 106.109 967.312 105.814C967.077 105.5 966.835 105.177 966.835 104.734C966.835 103.873 967.491 102.987 968.193 102.437L968.24 102.46C967.725 103.131 967.397 103.848 967.397 104.71C967.397 104.985 967.563 105.205 967.747 105.449ZM973.183 109.041L971.403 107.27L970.466 108.251V116.722L972.597 118.564L973.183 117.894V109.041ZM973.933 108.706V117.583L976.978 120.287L976.603 120.646L973.441 117.846V108.921L971.567 107.079L971.942 106.696L973.933 108.706ZM978.476 108.73L977 107.294L976.157 108.179V116.698L978.453 118.755L978.476 118.732V108.73ZM977.515 106.696L979.225 108.395V118.134L978.733 118.612V108.61L977.164 107.079L977.515 106.696Z" fill="#B3B3B3"/>
<path fill-rule="evenodd" clip-rule="evenodd" d="M1007.41 119.687V111.495L1007.89 110.974L1007.69 110.808L1007.29 111.235L1005.11 109.293L1003.03 111.518V105.173L1002.98 105.149L1000.45 107.825V118.29L999.587 119.19V119.285L1001.81 121.297L1003.75 119.214V119.166L1003.03 118.527V111.921L1003.53 111.376L1004.82 112.536V121.013C1004.82 122.197 1004.18 123.31 1003.05 123.854L1003.1 123.949C1005.37 123.5 1007.41 121.96 1007.41 119.687ZM987.46 119.261L989.732 121.297L991.909 118.977L991.718 118.811L991.311 119.237L990.044 118.077V111.518L990.57 110.974L990.378 110.784L989.924 111.258L987.341 109.269L982.845 112.489V118.835L982.414 119.285L982.605 119.474L982.94 119.119L985.428 121.297L987.46 119.261ZM983.61 112.276V118.669L985.786 120.564L985.403 120.942L983.107 118.906V112.631L983.61 112.276ZM987.461 112.442L985.5 110.926L985.428 110.974V117.864L987.054 119.261L987.461 118.858V112.442ZM988.227 112.087V118.882L990.092 120.539L989.734 120.918L987.724 119.119V112.347L985.716 110.784L986.194 110.453L988.227 112.087ZM996.691 113.578H999.155V118.645L995.352 121.297C994.85 120.729 994.132 120.327 993.247 120.327C992.53 120.327 991.956 120.563 991.191 121.203L991.071 121.155L994.324 116.467H992.315V112.063L996.309 109.316C996.787 109.695 997.146 109.908 997.768 109.908C998.246 109.908 998.94 109.813 999.466 109.387L999.562 109.435L996.691 113.578ZM992.292 120.208C992.77 119.877 993.32 119.64 994.014 119.64C994.947 119.64 995.497 120.042 995.952 120.564L995.401 120.966C994.827 120.303 993.966 120.042 993.416 120.042C993.057 120.042 992.675 120.09 992.292 120.256V120.208ZM996.572 115.662H995.233L992.435 119.664L992.459 119.711C993.152 119.214 993.822 118.883 994.635 118.883C995.352 118.883 996.094 119.214 996.548 119.782L996.572 119.759V115.662ZM993.08 111.85V115.662V115.662H994.898L994.515 116.183H992.578V112.205L993.08 111.85ZM998.079 111.021C997.577 111.376 997.29 111.566 996.452 111.566C995.974 111.566 995.4 111.353 994.946 110.879L994.898 110.903V114.359H995.807L998.103 111.044L998.079 111.021ZM995.593 110.121C995.952 110.595 996.502 110.808 996.932 110.808C997.363 110.808 997.865 110.737 998.271 110.571L998.247 110.642C997.602 111.186 996.98 111.305 996.549 111.305C995.88 111.305 995.45 111.068 994.995 110.524L995.593 110.121ZM997.337 114.881H995.782L995.424 115.378H996.835V119.971L997.337 119.616V114.881ZM1000.71 119.237V119.19L1001.21 118.692V107.422L1000.71 107.943V118.456L999.944 119.213V119.261L1001.81 120.918L1002.14 120.539L1000.71 119.237ZM1004.03 110.832L1005.59 112.157H1005.59V120.563C1005.59 121.392 1005.37 122.031 1004.78 122.458L1004.75 122.434C1004.97 122.102 1005.09 121.511 1005.09 120.942V112.418L1003.7 111.187L1004.03 110.832ZM1011.76 121.297L1009.7 119.427L1009.22 119.924L1009.03 119.734L1009.58 119.143V112.3L1008.58 111.353L1008.2 111.779L1008 111.589L1010.16 109.269L1012.07 110.974L1012.55 110.453L1012.76 110.619L1012.17 111.258V118.172L1013.31 119.238L1013.84 118.693L1014.03 118.883L1011.76 121.297ZM1010.35 111.921V118.977L1012.12 120.54L1011.76 120.919L1009.85 119.214V112.181L1008.77 111.163L1009.1 110.784L1010.35 111.921ZM1011.07 109.08L1009.11 107.304L1010.9 105.41L1012.86 107.186L1011.07 109.08ZM1009.49 107.28L1009.85 106.925L1011.4 108.322L1011.04 108.724L1009.49 107.28Z" fill="#B3B3B3"/>
<path fill-rule="evenodd" clip-rule="evenodd" d="M1036.99 121.512L1034.79 119.746L1034.34 120.261L1034.15 120.065L1034.67 119.476V110.89H1033.29L1033.24 110.841L1034.08 109.565H1034.67V107.922L1037.21 105.149L1037.25 105.199V109.565H1039.17L1039.21 109.615L1038.38 110.89H1037.25V118.324L1038.57 119.354L1039.07 118.79L1039.26 118.986L1036.99 121.512ZM1029.13 125.928C1028.34 125.045 1027.79 124.677 1027.05 124.677C1026.26 124.677 1025.36 124.996 1024.42 125.511L1024.35 125.438L1027.65 121.513L1025.31 119.599L1024.85 120.09L1024.66 119.919L1025.19 119.33V112.387L1029.73 109.05L1032.26 111.111L1032.69 110.62L1032.88 110.817L1032.38 111.381V119.771C1032.38 120.455 1032.58 120.758 1032.76 121.04C1032.92 121.283 1033.07 121.511 1033.07 121.954C1033.07 122.925 1031.87 123.838 1029.96 125.294C1029.7 125.495 1029.42 125.706 1029.13 125.928ZM1022.39 121.512L1020.31 119.574V112.411L1019.05 111.234L1018.38 111.969V118.593L1019.12 119.304V119.402L1017.16 121.512L1014.94 119.427V119.354L1015.8 118.422V112.239L1014.68 111.184L1014.22 111.699L1014.03 111.503L1016.21 109.074L1018.38 111.062V111.552L1020.65 109.074L1022.78 111.037L1023.25 110.522L1023.47 110.718L1022.89 111.331V118.348L1023.97 119.378L1024.5 118.789L1024.69 118.985L1022.39 121.512ZM1016.09 119.378V119.329C1016.09 119.378 1016.56 118.838 1016.56 118.838V111.871L1015.2 110.595L1014.87 110.963L1016.06 112.092V118.568L1015.32 119.353V119.402L1017.16 121.119L1017.54 120.703L1016.09 119.378ZM1021.08 111.994V119.182L1022.75 120.727L1022.37 121.144L1020.58 119.427V112.288L1019.21 111.037L1019.6 110.62L1021.08 111.994ZM1025.95 112.19V119.133L1028.18 120.875L1027.82 121.317L1025.45 119.354V112.559L1025.95 112.19ZM1027.63 124.04C1026.84 124.04 1026.12 124.285 1025.45 124.751V124.8C1025.49 124.787 1025.52 124.773 1025.55 124.76C1025.96 124.596 1026.42 124.408 1027.17 124.408C1027.91 124.408 1028.53 124.824 1029.16 125.561L1029.63 125.168C1029.04 124.457 1028.32 124.04 1027.63 124.04ZM1029.8 119.82C1029.8 120.875 1029.94 121.292 1030.54 121.684C1031.14 122.077 1031.54 122.445 1031.54 122.935C1031.54 123.549 1031.23 123.941 1030.78 124.334C1030.04 123.696 1029.39 123.303 1028.44 123.303C1027.32 123.303 1026.62 123.647 1025.86 124.112L1025.83 124.088L1029.8 119.378V119.82ZM1029.8 112.337L1027.82 110.743L1027.77 110.792V118.323L1029.3 119.55L1029.8 118.961V112.337ZM1030.56 119.378C1030.56 120.433 1030.63 120.85 1031.26 121.341C1031.78 121.758 1032.05 122.126 1032.04 122.665C1032.04 122.984 1031.9 123.18 1031.78 123.303L1031.76 123.279C1031.76 123.279 1031.78 123.033 1031.78 122.886C1031.78 122.322 1031.33 121.905 1030.75 121.512C1030.11 121.071 1030.06 120.776 1030.06 119.722V112.166L1028.1 110.571L1028.56 110.252L1030.56 111.921V119.378ZM1034.94 108.069L1035.44 107.504V109.565H1034.94V108.069ZM1035.44 119.231V110.89H1034.94V119.525L1036.97 121.145L1037.33 120.752L1035.44 119.231ZM1047.07 118.471V111.602L1047.58 111.037L1047.38 110.841L1046.93 111.332L1044.11 109.074L1039.88 112.19V118.912L1039.45 119.403L1039.64 119.599L1040 119.182L1043.04 121.537L1047.07 118.471ZM1040.65 118.667V111.97L1040.15 112.337V118.937L1043.01 121.194L1043.47 120.85L1040.65 118.667ZM1042.49 110.792L1044.49 112.411V119.697L1042.46 118.127V110.816L1042.49 110.792ZM1045.26 111.969L1043.04 110.203L1042.58 110.546L1044.76 112.263V119.893L1045.26 119.501V111.969ZM1054.12 119.574L1056.2 121.512L1058.49 118.985L1058.3 118.789L1057.78 119.378L1056.7 118.348V111.331L1057.27 110.718L1057.06 110.522L1056.58 111.037L1054.45 109.074L1052.19 111.552V111.062L1050.01 109.074L1047.84 111.503L1048.03 111.699L1048.48 111.184L1049.6 112.239V118.422L1048.74 119.354V119.427L1050.97 121.512L1052.93 119.402V119.304L1052.19 118.593V111.969L1052.85 111.234L1054.12 112.411V119.574ZM1049.89 119.378V119.329C1049.89 119.378 1050.37 118.838 1050.37 118.838V111.871L1049.01 110.595L1048.67 110.963L1049.87 112.092V118.568L1049.13 119.353V119.402L1050.97 121.119L1051.35 120.702L1049.89 119.378ZM1054.89 111.994V119.182L1056.56 120.727L1056.18 121.144L1054.38 119.427V112.288L1053.02 111.037L1053.4 110.62L1054.89 111.994Z" fill="#B3B3B3"/>
<path fill-rule="evenodd" clip-rule="evenodd" d="M1070.01 120.356C1070.81 120.576 1071.05 120.821 1071.73 121.556L1075.99 118.324V107.672L1073.24 105.149L1070 108.651V106.08H1069.74V108.896L1069.2 109.484V107.256L1066.91 105.15L1064.45 107.77L1064.62 107.941L1065.11 107.451L1066.11 108.357V111.002H1065.96C1064.72 111.002 1063.97 112.079 1063.97 113.108C1063.97 113.671 1064.02 114.014 1064.09 114.234H1064.16C1064.5 113.573 1064.89 113.206 1065.6 113.206H1066.11V117.981C1064.53 118.519 1063.6 119.915 1063.43 121.8L1063.48 121.825C1064.36 120.944 1065.26 120.503 1066.11 120.307V126.893L1066.16 126.918L1068.98 124.298L1069.96 125.179L1070.01 125.155V120.894V120.356ZM1063.94 121.017C1064.41 120.209 1065.11 119.597 1066.11 119.401V120.013C1065.28 120.209 1064.65 120.478 1063.97 121.066L1063.94 121.017ZM1066.89 112.374H1065.55C1064.63 112.374 1064.26 112.961 1064.24 113.647L1064.26 113.671C1064.55 113.181 1064.84 113.01 1065.43 112.937H1066.38V126.282L1066.89 125.792V112.374ZM1065.67 106.84L1066.89 107.966V111.002H1066.38V108.235L1065.28 107.256L1065.67 106.84ZM1069.74 109.361L1069.2 109.924V124.102L1069.74 124.592V109.361ZM1071.49 107.476L1072.93 108.798V119.009L1072.9 119.034C1072.15 118.201 1071.27 117.834 1070.01 117.711V109.092L1071.49 107.476ZM1070.01 119.401V120.038C1070.83 120.233 1071.17 120.478 1071.76 121.164L1072.32 120.723C1071.73 119.989 1071.15 119.548 1070.01 119.401ZM1072.05 106.864L1073.71 108.407V119.695L1073.2 120.086V108.7L1071.66 107.28L1072.05 106.864ZM1084.49 111.663V118.519L1080.38 121.58L1077.28 119.23L1076.92 119.646L1076.72 119.45L1077.16 118.96V112.251L1081.47 109.141L1084.34 111.394L1084.81 110.904L1085 111.1L1084.49 111.663ZM1077.94 112.031V118.715L1080.81 120.895L1080.35 121.237L1077.43 118.985V112.398L1077.94 112.031ZM1081.86 112.471L1079.82 110.855L1079.79 110.879V118.176L1081.86 119.743V112.471ZM1080.38 110.267L1082.64 112.031V119.548L1082.13 119.94V112.324L1079.91 110.61L1080.38 110.267ZM1090.14 113.573H1092.65V118.813L1088.77 121.556C1088.26 120.968 1087.53 120.552 1086.63 120.552C1085.9 120.552 1085.32 120.797 1084.54 121.458L1084.42 121.409L1087.73 116.56H1085.68V112.006L1089.75 109.166C1090.24 109.557 1090.6 109.777 1091.23 109.777C1091.72 109.777 1092.43 109.679 1092.96 109.239L1093.06 109.288L1090.14 113.573ZM1085.66 120.429C1086.15 120.087 1086.71 119.842 1087.41 119.842C1088.36 119.842 1088.92 120.258 1089.38 120.797L1088.82 121.213C1088.24 120.528 1087.36 120.258 1086.8 120.258C1086.44 120.258 1086.05 120.307 1085.66 120.478V120.429ZM1090.02 115.728H1088.65L1085.81 119.866L1085.83 119.915C1086.54 119.401 1087.22 119.059 1088.05 119.059C1088.78 119.059 1089.53 119.401 1089.99 119.989L1090.02 119.965V115.728ZM1086.46 111.786V115.728V115.728H1088.31L1087.92 116.267H1085.95V112.153L1086.46 111.786ZM1091.55 110.928C1091.04 111.296 1090.75 111.492 1089.89 111.492C1089.41 111.492 1088.82 111.271 1088.36 110.781L1088.31 110.806V114.381H1089.24L1091.57 110.953L1091.55 110.928ZM1089.02 109.998C1089.38 110.488 1089.94 110.708 1090.38 110.708C1090.82 110.708 1091.33 110.635 1091.75 110.463L1091.72 110.536C1091.07 111.099 1090.43 111.222 1089.99 111.222C1089.31 111.222 1088.87 110.978 1088.41 110.414L1089.02 109.998ZM1090.8 114.92H1089.21L1088.85 115.434H1090.28V120.184L1090.8 119.817V114.92ZM1094.45 119.793L1096.69 121.556L1099 119.034L1098.81 118.838L1098.29 119.402L1096.96 118.373V110.953H1098.1L1098.95 109.68L1098.9 109.631H1096.96V105.272L1096.91 105.223L1094.33 107.99V109.63H1093.72L1092.87 110.904L1092.91 110.953H1094.33V119.523L1093.79 120.111L1093.99 120.307L1094.45 119.793ZM1095.1 107.574L1094.59 108.137V109.631H1095.1V107.574ZM1095.1 110.953V119.278L1097.03 120.797L1096.66 121.189L1094.59 119.572V110.953H1095.1Z" fill="#B3B3B3"/>
<path fill-rule="evenodd" clip-rule="evenodd" d="M492 108.949V111.899H494.871H497.742V117.673V123.447H500.737H503.733V117.673V111.899H506.604H509.474V117.673V123.447H518.253H527.032V120.498V117.548H521.207H515.382V114.724V111.899H521.207H527.032V108.949V106H521.166H515.299V108.866V111.733H512.428H509.558V108.866V106H500.779H492V108.949ZM559.824 109.982C559.76 110.023 559.207 110.255 558.597 110.498L557.487 110.94V115.781V120.622H558.86H560.233L560.235 118.275C560.236 116.984 560.272 115.78 560.314 115.598C560.415 115.164 560.596 115.043 561.099 115.073C561.434 115.093 561.537 115.139 561.681 115.332C561.848 115.556 561.857 115.676 561.881 118.094L561.907 120.622H563.281H564.655L564.624 117.694C564.594 114.873 564.586 114.746 564.399 114.234C564.172 113.616 563.73 113.127 563.174 112.881C562.895 112.758 562.619 112.718 562.052 112.718C561.393 112.718 561.241 112.747 560.83 112.952C560.572 113.081 560.332 113.199 560.297 113.214C560.262 113.23 560.233 112.491 560.233 111.573C560.233 110.039 560.222 109.905 560.088 109.906C560.008 109.907 559.889 109.941 559.824 109.982ZM611.315 109.989C611.24 110.032 610.884 110.183 610.524 110.324C610.164 110.464 609.673 110.661 609.434 110.761L608.998 110.943L608.997 115.783L608.995 120.622H610.368H611.741V118.184C611.741 115.67 611.783 115.295 612.077 115.137C612.359 114.987 612.949 115.039 613.122 115.231C613.27 115.393 613.282 115.584 613.305 118.014L613.329 120.622H614.702H616.074L616.05 117.569L616.027 114.516L615.811 114.059C615.356 113.096 614.724 112.718 613.567 112.718C612.825 112.718 612.711 112.75 611.804 113.21C611.769 113.228 611.741 112.491 611.741 111.573C611.741 110.039 611.73 109.905 611.596 109.907C611.516 109.909 611.389 109.945 611.315 109.989ZM569.549 110.311C568.766 110.522 568.169 110.868 567.598 111.442C567.012 112.029 566.641 112.687 566.375 113.605C566.097 114.567 566.099 116.382 566.379 117.341C566.797 118.775 567.569 119.732 568.769 120.307C569.569 120.69 570.415 120.808 571.6 120.7C572.901 120.582 574.043 119.864 574.805 118.686C574.983 118.412 575.128 118.146 575.127 118.096C575.126 118.018 572.71 116.676 572.679 116.737C572.462 117.155 571.967 117.766 571.706 117.939C571.038 118.38 570.177 118.195 569.711 117.509C568.93 116.361 569.179 113.528 570.115 112.916C570.273 112.813 570.498 112.772 570.902 112.776C571.444 112.78 571.483 112.794 571.797 113.101C571.981 113.28 572.189 113.598 572.27 113.823C572.35 114.044 572.455 114.225 572.503 114.225C572.551 114.225 572.89 114.109 573.256 113.968C573.622 113.828 574.193 113.613 574.525 113.491C574.862 113.367 575.128 113.221 575.128 113.158C575.128 113.097 574.956 112.714 574.746 112.308C574.343 111.528 573.741 110.879 573.141 110.576C572.319 110.161 570.581 110.033 569.549 110.311ZM532.94 111.608V112.896H534.355H535.769V116.759V120.622H537.225H538.682V116.759V112.896H540.138H541.594V111.608V110.32H537.267H532.94V111.608ZM544.112 112.736C543.106 112.835 542.048 113.578 541.604 114.497C541.309 115.106 541.151 115.881 541.151 116.718C541.151 118.698 541.971 120.034 543.529 120.59C543.96 120.744 545.647 120.763 546.183 120.62C546.743 120.471 547.918 119.941 547.918 119.838C547.918 119.765 547.065 118.258 546.96 118.144C546.946 118.129 546.661 118.215 546.326 118.336C545.441 118.655 544.787 118.698 544.315 118.47C543.964 118.301 543.89 118.204 543.726 117.694C543.683 117.558 543.824 117.548 545.924 117.548H548.168V116.816C548.168 116.026 547.935 114.92 547.652 114.362C547.312 113.69 546.546 113.044 545.838 112.83C545.446 112.712 544.744 112.674 544.112 112.736ZM552.452 112.734C550.809 112.861 549.62 114.085 549.399 115.876C549.105 118.264 549.929 119.964 551.684 120.59C551.919 120.674 552.352 120.716 552.983 120.717C553.875 120.718 553.96 120.703 554.455 120.46C555.02 120.182 556.101 119.124 556.055 118.894C556.042 118.827 555.667 118.492 555.223 118.15L554.414 117.527L553.971 117.995C553.555 118.435 553.506 118.462 553.134 118.462C552.91 118.462 552.65 118.404 552.534 118.328C551.923 117.929 551.929 115.487 552.541 115.087C552.687 114.991 552.859 114.964 553.124 114.994C553.549 115.042 553.754 115.193 553.949 115.603C554.023 115.759 554.121 115.887 554.166 115.887C554.212 115.887 554.656 115.578 555.152 115.201L556.056 114.516L555.919 114.275C555.688 113.871 555.057 113.283 554.58 113.028C554.068 112.753 553.393 112.66 552.452 112.734ZM580.518 112.73C580.268 112.761 579.987 112.875 579.748 113.043L579.372 113.308V113.06V112.813H577.999H576.626V116.718V120.622H577.999H579.372V118.308C579.372 116.873 579.406 115.897 579.461 115.738C579.67 115.14 580.417 115.041 581.125 115.516C581.414 115.711 581.582 115.779 581.62 115.718C581.652 115.667 581.742 115.32 581.821 114.946C581.9 114.572 582.018 114.035 582.083 113.751C582.148 113.467 582.201 113.176 582.201 113.103C582.201 112.832 581.304 112.633 580.518 112.73ZM596.333 112.737C596.053 112.768 595.708 112.879 595.486 113.009C595.026 113.278 595.016 113.278 595.016 113.02V112.813H593.643H592.27V116.718V120.622H593.643H595.016L595.018 118.275C595.019 116.984 595.054 115.78 595.096 115.598C595.197 115.164 595.378 115.043 595.881 115.073C596.216 115.093 596.32 115.139 596.464 115.332C596.631 115.556 596.64 115.675 596.663 118.094L596.687 120.622H598.061H599.436L599.407 117.694C599.378 114.865 599.371 114.747 599.182 114.234C598.749 113.058 597.822 112.571 596.333 112.737ZM603.919 112.739C602.757 112.833 601.79 113.487 601.302 114.507C600.923 115.301 600.81 115.941 600.86 117.028C600.933 118.617 601.457 119.647 602.514 120.276C603.101 120.626 603.502 120.716 604.491 120.717C605.382 120.718 605.468 120.703 605.959 120.462C606.489 120.202 607.581 119.168 607.581 118.926C607.581 118.864 607.201 118.522 606.737 118.167L605.894 117.522L605.552 117.902C605.146 118.353 604.95 118.462 604.544 118.462C603.836 118.462 603.59 118.013 603.59 116.718C603.59 115.456 603.84 114.973 604.491 114.973C604.907 114.973 605.132 115.107 605.385 115.507C605.536 115.747 605.668 115.871 605.741 115.844C605.805 115.82 606.241 115.511 606.71 115.158L607.563 114.516L607.418 114.281C607.161 113.865 606.521 113.266 606.072 113.023C605.569 112.749 604.891 112.66 603.919 112.739ZM583.388 115.783C583.426 119.14 583.454 119.324 584.037 119.985C584.543 120.559 584.942 120.715 585.913 120.717C586.652 120.718 586.766 120.697 587.208 120.469L587.693 120.219V120.421V120.622H589.108H590.522V116.718V112.813H589.111H587.7L587.676 115.437L587.652 118.062L587.455 118.22C587.204 118.423 586.596 118.435 586.402 118.242C586.327 118.166 586.23 118.014 586.188 117.904C586.146 117.794 586.112 116.603 586.112 115.258V112.813H584.734H583.355L583.388 115.783ZM545.164 114.869C545.37 114.975 545.488 115.121 545.599 115.409L545.752 115.804H544.711H543.671L543.722 115.575C543.884 114.859 544.529 114.543 545.164 114.869Z" fill="#B3B3B3"/>
<path d="M267.294 28.2185C266.616 28.6999 265.89 29.4578 265.472 30.0641C264.997 29.4721 264.187 28.7633 263.568 28.3435C264.178 27.8702 265.105 26.93 265.472 26.4137C265.84 26.9258 266.738 27.7945 267.294 28.2185Z" fill="#B3B3B3"/>
<path d="M278.331 32.9711C278.232 34.2206 277.266 35.4805 275.923 35.4805C274.67 35.4805 273.897 34.9765 273.473 34.0915L273.305 34.194V42.599C274.021 42.978 275.137 43.6437 275.755 44.0514L277.095 42.683L277.304 42.8652L274.099 46.1654C272.679 45.1473 270.719 43.9694 269.514 43.4061V43.3426C270.08 42.9944 270.289 42.4494 270.289 41.124V35.376C272.487 34.5279 274.225 33.3213 275.462 32.2439C275.703 32.6392 276.26 33.1348 276.968 33.1348C277.558 33.1348 278.019 33.0038 278.248 32.8441L278.331 32.9709V32.9711Z" fill="#B3B3B3"/>
<path d="M269.221 43.4287L266.542 46.186C265.847 45.6022 264.6 44.7929 263.548 44.2153V44.1497C263.945 43.9859 264.216 43.3427 264.216 42.5335V34.9622L263.254 34.2985L262.479 35.0851L262.291 34.9008L264.908 32.1845C265.533 32.6946 266.8 33.5406 267.861 34.1122V34.1532C267.431 34.4091 267.232 35.2326 267.232 36.1852V43.4287L268.237 44.0514L269.012 43.2381L269.221 43.4287Z" fill="#B3B3B3"/>
<path d="M263.067 43.4656L260.406 46.186C259.862 45.768 258.771 45.0388 258.041 44.6516V35.5214C257.464 35.2613 256.676 34.6919 256.345 34.3805L255.403 35.3555V43.4061L256.722 44.1497V44.2153L254.774 46.186C254.034 45.5631 252.756 44.7499 251.758 44.2378V44.1948C252.113 43.8629 252.366 43.2791 252.366 42.1626V28.4665C252.366 27.4299 252.177 27.1185 251.969 26.7661L252.113 26.7047C252.575 27.1001 252.862 27.434 252.973 28.1345H253.017C253.691 27.0202 254.528 26.2889 256.157 26.0819L256.199 26.166C255.744 26.715 255.403 27.3151 255.403 28.239V34.9622L257.999 32.244C258.878 32.9711 260.364 34.112 261.663 34.7757V34.8352C261.307 35.2122 261.098 35.9352 261.098 37.1848V43.4656L262.082 44.0903L262.878 43.2832L263.067 43.4656Z" fill="#B3B3B3"/>
<path d="M246.983 45.3561H246.754V29.9412H246.983V45.3561Z" fill="#B3B3B3"/>
<path d="M251.213 43.0537C249.857 44.6189 247.298 47.1836 243.341 47.1836C237.955 47.1836 234 43.5578 234 37.3692C234 31.6886 238.728 28.5402 241.79 27.3685L242.042 27.4934C239.154 29.3903 237.601 31.6866 237.601 35.6875C237.601 39.217 238.879 41.7304 240.806 43.1992L241.455 42.763V33.9237C241.455 32.3278 241.164 31.2074 240.68 30.8161V30.6869C243.047 29.5911 245.497 27.8662 247.194 26.3299C247.717 26.9362 248.366 27.2026 249.183 27.2026C250.072 27.2026 250.67 26.891 251.066 26.6023L251.213 26.7251C251.135 28.5299 250.167 30.2097 247.885 30.2097C246.46 30.2097 245.685 29.7344 244.974 28.9231L244.868 28.9438V40.8967C243.754 41.5153 241.935 42.7505 241.058 43.4061C242.363 44.2992 244.265 44.4631 246.21 44.4631C248.029 44.4631 249.644 43.7585 251.11 42.7445L251.213 43.0537Z" fill="#B3B3B3"/>
<path fill-rule="evenodd" clip-rule="evenodd" d="M309.72 36.7894C309.72 35.6034 309.968 35.0236 310.39 34.8352V34.7757C309.238 34.1736 307.373 32.9075 306.431 32.2233C304.963 33.2803 302.892 34.5688 300.987 35.4805V41.5809C300.987 42.6584 300.715 43.3426 300.295 43.5946V43.654C301.836 44.4865 302.615 45.0504 303.917 45.9942C304.012 46.0628 304.11 46.1335 304.21 46.2064C305.635 45.0818 308.476 43.5105 309.72 42.9698V36.7894ZM306.659 35.6669V44.2562L306.328 44.4427C305.448 43.7586 304.509 43.0457 304.023 42.763V34.1736L304.358 33.9872C304.811 34.3499 305.952 35.2326 306.659 35.6669Z" fill="#B3B3B3"/>
<path fill-rule="evenodd" clip-rule="evenodd" d="M297.309 47.6252C298.434 46.7329 299.416 45.9544 299.416 45.2108C299.416 44.5484 299.14 44.2302 298.852 43.897C298.535 43.5306 298.202 43.1459 298.202 42.265V37.2442C298.202 35.5849 298.372 35.1281 298.851 34.8351V34.7757C297.813 34.2124 295.93 33.0242 294.958 32.2233C293.718 33.1635 291.688 34.323 289.472 35.4804V41.8082C289.472 42.8223 289.283 43.2176 288.82 43.5105V43.5945C289.895 44.1537 291.911 45.4279 292.905 46.2064L295.167 43.9469C295.352 45.0378 296.054 45.4849 296.636 45.8547C297.09 46.144 297.471 46.3859 297.471 46.8515C297.471 47.2101 296.8 47.6957 296.592 47.8267C295.808 47.3105 294.601 46.8701 293.532 46.8701C291.138 46.8701 289.43 48.1872 288.57 49.7748L288.634 49.7974C289.701 49.3712 290.557 49.2156 292.068 49.2156C293.265 49.2156 293.73 49.3447 294.539 49.7974C294.539 49.7974 295.38 49.1726 297.009 47.8635C297.11 47.7832 297.21 47.7038 297.309 47.6252ZM295.125 35.5849V43.5946L294.581 44.1333C294.088 43.7708 292.999 42.9923 292.486 42.7013V34.153L292.8 33.9645C293.22 34.321 294.103 34.96 295.125 35.5849Z" fill="#B3B3B3"/>
<path fill-rule="evenodd" clip-rule="evenodd" d="M288.486 43.4901L285.804 46.1654C285.151 45.6266 283.874 44.7356 283.145 44.3832H283.125C282.705 44.6787 282.322 44.9533 281.944 45.224C281.503 45.5408 281.069 45.8523 280.59 46.1858C279 45.6675 277.723 44.25 277.723 42.599C277.723 40.3742 279.532 39.2292 281.198 38.635V38.6126C279.763 37.9243 278.589 36.6193 278.267 35.044L282.873 32.2233C283.776 32.9873 285.848 34.321 286.999 34.9622V35.0236C286.433 35.3984 286.288 35.8574 286.288 37.0373V43.3016L287.502 44.0718L288.277 43.2832L288.486 43.4901ZM283.228 38.1577V35.6874C282.482 35.2612 281.204 34.3803 280.634 33.9236L280.299 34.1325C280.402 35.5951 280.607 37.5085 281.595 38.4917C281.955 38.3688 282.798 38.2069 283.228 38.1577ZM283.228 38.4242V43.9674L282.601 44.3997C281.26 43.9858 280.381 42.7384 280.381 41.5194C280.381 39.9196 281.406 38.6392 283.228 38.4242Z" fill="#B3B3B3"/>
<path d="M383.388 43.5106L380.707 46.2065C380.035 45.6821 378.948 44.9876 378.342 44.6517V35.46C377.895 35.1917 377.207 34.6714 376.917 34.4214L375.66 35.6875V43.4288C376.072 43.6048 376.665 43.9634 376.959 44.1744V44.2379L375.013 46.2065C374.305 45.6185 373.043 44.8196 371.974 44.2563V44.1948C372.415 43.9471 372.626 43.4288 372.626 42.2426V35.501L371.182 34.36L370.405 35.1487L370.215 34.9622L372.896 32.2439C373.366 32.7396 374.705 33.8191 375.661 34.4009V35.2121L378.508 32.2439C379.493 33.0121 381.084 34.0199 382.006 34.5689V34.6325C381.503 34.9009 381.356 35.5645 381.356 36.7465V43.4288L382.402 44.113L383.198 43.3222L383.388 43.5106Z" fill="#B3B3B3"/>
<path d="M371.43 43.4492L368.769 46.1861C368.054 45.6062 366.857 44.8114 366.152 44.4223V43.4657L363.117 46.2065C361.902 45.211 360.876 44.5657 359.789 44.0309V43.9675C360.349 43.6664 360.479 43.1152 360.479 41.8083V35.0053L359.516 34.3376L358.699 35.1692L358.49 34.9828L361.149 32.244C361.662 32.6823 362.77 33.4647 363.496 33.8009V43.1788C363.807 43.3529 364.413 43.7586 364.918 44.1498L366.131 43.0314C366.131 43.0314 366.129 37.1399 366.131 34.9828C365.803 34.7288 365.18 34.401 364.874 34.2556V34.1941C365.401 33.7516 366.377 32.8154 366.822 32.244C367.564 32.8359 369.057 33.7353 369.82 34.1531V34.1941C369.355 34.4072 369.168 34.9009 369.168 35.9763V43.3017L370.51 44.0515L371.263 43.2833L371.43 43.4492H371.43Z" fill="#B3B3B3"/>
<path d="M345.76 28.2389C345.142 28.665 344.311 29.5746 343.937 30.0867C343.641 29.7262 342.87 28.9191 342.074 28.3229C342.605 27.8948 343.523 26.9587 343.937 26.3544C344.358 26.885 345.256 27.8149 345.76 28.2389Z" fill="#B3B3B3"/>
<path d="M347.729 43.4492L345.048 46.2065C344.248 45.5715 342.906 44.6885 342.031 44.2379V44.1744C342.492 43.8815 342.682 43.3017 342.682 42.4311V35.0053L341.699 34.3212L340.944 35.0852L340.754 34.9009L343.373 32.203C344.107 32.9036 345.563 33.7434 346.326 34.1327V34.1737C345.895 34.4276 345.697 34.8353 345.697 35.9394V43.4492L346.743 44.0719L347.541 43.2607L347.729 43.4492Z" fill="#B3B3B3"/>
<path d="M340.942 33.0715C340.847 34.1511 339.873 35.5441 338.66 35.5441C337.773 35.5441 337.091 35.1488 336.629 34.5035L336.315 34.8168V42.8879C337.053 43.2341 338.019 43.8077 338.428 44.0719L339.203 43.2833L339.414 43.4657L336.694 46.2065C335.431 45.2602 333.714 44.1847 332.693 43.6766V43.6541C333.14 43.4964 333.322 43.1337 333.322 42.4148V35.4806L331.98 34.3212L331.227 35.1282L331.037 34.9398L333.613 32.2439C334.382 33.0838 335.672 34.0568 336.274 34.4849L338.409 32.2664C338.811 32.756 339.249 33.176 340.001 33.176C340.293 33.176 340.607 33.0941 340.839 32.9917L340.942 33.0715Z" fill="#B3B3B3"/>
<path d="M332.777 26.5776C332.479 28.874 331.526 30.9185 329.07 30.9185C328.778 30.9185 328.232 30.8754 328.045 30.8549V44.4631C329.531 44.2562 331.346 43.5413 332.066 42.9698L332.171 43.238C331.048 44.8319 327.957 47.2676 324.129 47.2676C319.289 47.2676 315.543 44.1087 315.543 39.0059C315.543 34.612 319.204 31.4428 321.594 30.605L321.803 30.6871C320.135 32.1926 318.956 34.2432 318.956 37.4736C318.956 40.1675 320.066 41.9537 321.762 43.2832L322.514 42.8059V36.1236C322.514 34.7143 322.394 33.6799 321.574 33.3828V33.2803C322.667 32.8318 324.687 31.8443 325.929 31.0823V40.9131C324.823 41.5153 322.959 42.7731 322.014 43.4901C323.103 44.2377 324.693 44.6105 326.347 44.6105C326.916 44.6105 327.178 44.582 327.815 44.4857V30.8304C324.8 30.5824 321.588 29.3431 319.124 29.3431C317.393 29.3431 316.089 30.0437 316.089 31.3506C316.089 32.1414 316.715 32.4815 317.114 32.6597L316.779 32.8441C316.043 32.5143 315.125 31.7215 315.125 30.0437C315.125 27.6019 317.108 26.0001 319.773 26.0001C323.459 26.0001 326.926 27.9277 330.18 27.9277C331.185 27.9277 332.115 27.4012 332.589 26.4343L332.777 26.5778V26.5776Z" fill="#B3B3B3"/>
<path fill-rule="evenodd" clip-rule="evenodd" d="M392.748 36.2056C392.748 36.2056 392.748 36.2055 392.748 36.2055V36.2057L392.748 36.2056ZM392.748 36.2056C391.003 37.2647 388.927 38.6249 387.346 39.7537V42.683C388.045 42.9923 389.246 43.7278 389.796 44.0903L391.218 42.6379L391.407 42.8059L388.08 46.2064C387.046 45.467 385.024 44.1907 383.596 43.4286V43.3672C384.055 43.238 384.311 42.5764 384.311 41.124V35.4805C386.277 34.6078 388.099 33.4074 389.564 32.2233L392.748 36.2056ZM387.555 34.0917C388.154 35.0319 389.51 37.0333 389.94 37.6377L387.346 39.3584V34.2556L387.555 34.0917Z" fill="#B3B3B3"/>
<path fill-rule="evenodd" clip-rule="evenodd" d="M357.592 37.1849C357.592 35.708 357.726 35.0688 358.239 34.8579V34.7964C357.24 34.1838 355.245 32.9322 354.47 32.244L351.894 34.9623V28.3437C351.894 27.2702 352.216 26.7785 352.669 26.2255L352.646 26.1025C351.021 26.3074 350.182 27.0223 349.508 28.1346H349.465C349.341 27.5344 349.047 27.098 348.606 26.7252L348.479 26.7888C348.689 27.1616 348.857 27.6389 348.857 28.571V41.0177C348.857 42.7016 348.772 43.2607 348.164 43.5947V43.6541C349.465 44.4182 351.073 45.5101 352.082 46.2065C353.422 44.9426 356.291 43.4657 357.592 43.015V37.1849ZM354.534 35.5442V44.238L354.135 44.4429L351.895 42.7447V35.3557L352.879 34.4215L354.534 35.5442Z" fill="#B3B3B3"/>
<path fill-rule="evenodd" clip-rule="evenodd" d="M25.4558 42.1876L23.7935 42.4629L23.7104 44.1694H35.5123L35.3184 39.3526L32.8804 39.27L32.548 42.4354H28.9465V35.1688H30.4979L30.8858 36.7928H32.4926V32.0585L30.8858 32.0034L30.5256 33.5723H28.9742V26.7186H32.5757L32.7142 29.6088L35.0137 29.6913L35.2907 25.0671H23.6827L23.5996 26.7186L25.4558 26.9664V42.1876ZM36.6748 42.7656L36.5916 44.1694L42.4372 44.1969L42.5203 42.7931L41.1351 42.5179V33.765C41.3013 33.5448 41.4953 33.2971 41.6892 33.1319C41.9939 33.0218 42.271 32.9392 42.6865 32.9392C43.9055 32.9392 44.3765 33.6824 44.3765 35.0036V44.1694H48.8645L48.9476 42.7656L47.5624 42.4904V34.3155C47.5624 31.8382 46.0387 30.5996 43.9609 30.5996C42.548 30.5996 41.4398 31.1776 40.5256 32.141V31.5905L40.2486 30.7648L36.4531 31.3153V32.7466L37.9768 32.8842V42.4904L36.6748 42.7656ZM109.37 42.7656L110.672 42.4904V32.8842L109.148 32.7466V31.3153L112.944 30.7648L113.221 31.5905V32.141C114.135 31.1776 115.243 30.5996 116.656 30.5996C118.734 30.5996 120.258 31.8382 120.258 34.3155V42.4904L121.643 42.7656L121.56 44.1694H117.072V35.0036C117.072 33.6824 116.601 32.9392 115.382 32.9392C114.966 32.9392 114.689 33.0218 114.384 33.1319C114.191 33.2971 113.997 33.5448 113.83 33.765V42.5179L115.216 42.7931L115.132 44.1969L109.315 44.1694L109.37 42.7656ZM53.4639 44.3896C54.6828 44.3896 55.6248 44.1419 56.1512 43.9217L56.0403 42.4904H54.7383C54.018 42.4904 53.6301 42.0225 53.6301 41.3343V32.9117L55.8187 32.664L55.9849 30.985H53.6024V28.2325L51.3861 28.315L50.6381 30.8749L48.8927 30.9574L48.8096 32.6365L50.361 32.8842V41.3343C50.361 43.6739 51.857 44.3896 53.4639 44.3896ZM146.245 44.1695L146.301 42.7932L147.52 42.518V32.8843L146.079 32.7467V31.3154L150.013 30.7649L150.29 31.7007V32.0035C151.315 31.2328 152.728 30.7373 154.418 30.7373L155 31.2328L154.584 34.8661L152.423 34.7835L152.202 32.8568C151.703 32.9393 151.204 33.077 150.816 33.3522V42.518L152.202 42.7932L152.118 44.1695H146.245ZM89.6464 42.7933L89.5633 44.1695H95.4088L95.4919 42.7933L94.1067 42.5181V33.3523C94.4946 33.077 94.9933 32.9394 95.4919 32.8568L95.7136 34.7836L97.8745 34.8661L98.3454 31.2328L97.7637 30.7374C96.0737 30.7374 94.6608 31.2328 93.6358 32.0035V31.7008L93.3587 30.7649L89.4248 31.3154V32.7467L90.8654 32.8843V42.5181L89.6464 42.7933ZM57.0926 44.1695L57.1757 42.7932L58.3947 42.518V32.8842L56.9541 32.7466V31.3153L60.8881 30.7648L61.1651 31.7007V32.0035C62.1902 31.2328 63.6031 30.7373 65.2653 30.7373L65.8471 31.2328L65.4315 34.866L63.2706 34.7835L63.049 32.8567C62.5503 32.9393 62.0516 33.0769 61.6638 33.3522V42.518L63.049 42.7932L62.9659 44.1695H57.0926ZM72.5802 42.3804C70.5578 42.3804 69.5605 40.5912 69.5605 38.3067L76.1818 38.2516L76.5142 37.3984C76.5142 33.7926 75.1844 30.5722 71.666 30.5722C67.6489 30.5722 66.1806 34.1779 66.1806 37.4809C66.1806 41.3344 68.203 44.3622 71.7214 44.3622C73.5222 44.3622 74.9628 43.7841 75.9601 42.9859L75.406 41.7198C74.4364 42.1602 73.6053 42.3804 72.5802 42.3804ZM69.5332 36.7928L73.578 36.6002C73.4949 35.0037 73.1624 32.4714 71.5833 32.4714C71.1954 32.4714 70.9461 32.554 70.4474 32.7742C69.7825 33.8752 69.5332 35.857 69.5332 36.7928ZM128.542 42.3805C126.52 42.3805 125.522 40.5913 125.522 38.3068L132.144 38.2517L132.476 37.3984C132.476 33.7927 131.146 30.5723 127.628 30.5723C123.611 30.5723 122.143 34.178 122.143 37.481C122.143 41.3345 124.165 44.3622 127.683 44.3622C129.484 44.3622 130.925 43.7842 131.922 42.986L131.368 41.7199C130.398 42.1603 129.567 42.3805 128.542 42.3805ZM125.467 36.7928L129.512 36.6002C129.428 35.0037 129.096 32.4714 127.517 32.4714C127.129 32.4714 126.88 32.554 126.381 32.7742C125.716 33.8752 125.467 35.857 125.467 36.7928ZM105.049 42.3803C103.027 42.3803 102.029 40.5912 102.029 38.3067L108.651 38.2516L108.983 37.3983C108.983 33.7926 107.653 30.5722 104.135 30.5722C100.118 30.5722 98.6494 34.1779 98.6494 37.4809C98.6494 41.3344 100.672 44.3621 104.19 44.3621C105.991 44.3621 107.432 43.7841 108.429 42.9859L107.875 41.7197C106.905 42.1601 106.074 42.3803 105.049 42.3803ZM101.974 36.7928L106.019 36.6002C105.936 35.0037 105.604 32.4714 104.025 32.4714C103.637 32.4714 103.387 32.554 102.889 32.7742C102.224 33.8752 101.947 35.857 101.974 36.7928ZM141.204 43.0135L141.536 44.1695V44.197H145.332L145.498 42.7933L144.113 42.518V31.8108L143.78 30.6548L139.348 31.1502V32.4164L140.899 32.554V41.417C140.705 41.6923 140.511 41.94 140.29 42.1602C139.902 42.2978 139.459 42.3529 139.126 42.3529C137.962 42.3529 137.353 41.5822 137.353 40.1233V31.8108L137.021 30.6548L132.643 31.1502V32.4164L134.167 32.554V40.4812C134.167 43.3438 136.023 44.3622 138.101 44.3622C139.459 44.3622 140.317 43.8392 141.204 43.0135ZM83.0808 42.4629C82.3882 42.4629 81.8341 42.3528 81.3909 42.105V33.6549C81.5848 33.3796 81.8064 33.1044 82.0281 32.8567C82.4436 32.719 82.8038 32.664 83.2193 32.664C85.0201 32.664 85.3248 34.4806 85.3248 37.7286C85.3248 40.6102 84.9276 41.5651 84.7555 41.979C84.7402 42.0158 84.7267 42.0483 84.7153 42.0775C84.2444 42.3252 83.6903 42.4629 83.0808 42.4629ZM84.2442 30.5997C87.2639 30.5997 88.4552 33.132 88.4552 37.1781C88.4552 39.4352 88.4275 44.3897 83.4407 44.3897C82.6096 44.3897 81.8339 44.197 81.2798 43.8942V49.0414L82.665 49.3166L82.5819 50.6929H76.7918L76.8749 49.3166L78.177 49.0414V32.7191L76.6533 32.5264V31.1502L80.5872 30.5997L80.9197 31.7557V32.2237L80.929 32.2124C81.3226 31.7374 82.2653 30.5997 84.2442 30.5997Z" fill="#B3B3B3"/>
<path fill-rule="evenodd" clip-rule="evenodd" d="M1029.85 33.595C1029.85 31.2338 1029.89 29.0355 1030.01 27L1023.9 28.1806V28.7505L1024.5 28.8319C1024.94 28.8727 1025.22 29.0355 1025.38 29.2798C1025.54 29.5647 1025.66 29.9718 1025.74 30.5825C1025.82 31.7631 1025.9 34.4499 1025.86 38.6838C1025.86 42.8769 1025.82 45.523 1025.74 46.5408C1027.94 47.0293 1029.65 47.2328 1030.93 47.2328C1033.33 47.2328 1035.21 46.5408 1036.56 45.1159C1037.92 43.7318 1038.64 41.7777 1038.64 39.3758C1038.64 37.4625 1038.12 35.8748 1037.08 34.6128C1036.04 33.3508 1034.73 32.7401 1033.17 32.7401C1032.13 32.7401 1031.05 33.0251 1029.85 33.595ZM1029.97 46.1336C1029.89 44.8309 1029.81 40.9228 1029.81 34.5313C1030.17 34.4092 1030.65 34.3278 1031.25 34.3278C1032.21 34.3278 1032.97 34.8163 1033.53 35.834C1034.09 36.8518 1034.37 38.0731 1034.37 39.6201C1034.37 41.5334 1034.05 43.0804 1033.41 44.3831C1032.77 45.6451 1031.97 46.2965 1030.97 46.2965C1030.65 46.2151 1030.33 46.1744 1029.97 46.1336ZM985 27.4071H1000.98L1001.14 32.8622L1000.18 33.1472C999.299 30.2161 997.781 28.7505 995.544 28.7505H992.389C992.269 30.3382 992.189 32.9436 992.189 36.6075L994.346 36.5668C995.544 36.5261 996.303 35.6305 996.703 33.88H997.501V40.5157H996.703C996.303 38.7245 995.504 37.8288 994.346 37.7881L992.189 37.7474C992.189 39.8236 992.269 41.6963 992.389 43.3247C992.429 44.2203 992.589 44.8717 992.868 45.2788C993.148 45.6452 993.587 45.9301 994.226 46.0115L995.305 46.093V46.9072H985V46.093L985.839 45.9708C986.478 45.8894 986.917 45.6452 987.197 45.2381C987.436 44.831 987.596 44.1796 987.676 43.284C987.996 39.4979 987.996 35.3862 987.676 30.9896C987.636 30.094 987.476 29.4426 987.197 29.0355C986.917 28.6691 986.478 28.4248 985.839 28.3027L985 28.2213V27.4071ZM999.1 39.9458C999.1 42.0627 999.699 43.8132 1000.86 45.1974C1002.02 46.5815 1003.73 47.2329 1005.89 47.2329C1008.05 47.2329 1009.8 46.5408 1011.08 45.1159C1012.36 43.7318 1012.96 41.9813 1012.96 39.8644C1012.96 37.7474 1012.36 35.9969 1011.2 34.6128C1010.04 33.2286 1008.33 32.5773 1006.17 32.5773C1004.01 32.5773 1002.25 33.2693 1000.98 34.6942C999.699 36.0783 999.1 37.8289 999.1 39.9458ZM1008.69 39.9051C1008.69 38.0324 1008.49 36.4855 1008.01 35.3049C1007.53 34.0836 1006.85 33.4729 1005.97 33.5136C1004.25 33.5136 1003.37 35.6305 1003.37 39.9051C1003.37 41.737 1003.57 43.284 1004.05 44.5053C1004.53 45.7266 1005.21 46.3373 1006.09 46.3373C1007.81 46.3373 1008.69 44.2203 1008.69 39.9051ZM1041.76 45.1974C1043.07 46.5408 1044.75 47.2329 1046.75 47.2329C1047.99 47.2329 1049.07 46.9887 1050.02 46.4594C1050.98 45.9709 1051.74 45.3603 1052.26 44.6275L1051.86 44.139C1050.98 44.831 1049.98 45.1567 1048.83 45.1567C1047.23 45.1567 1045.99 44.6275 1045.15 43.5283C1044.27 42.4291 1043.87 41.045 1043.95 39.2538H1052.5C1052.5 37.2997 1052.02 35.712 1051.02 34.45C1050.02 33.2287 1048.63 32.618 1046.83 32.618C1044.59 32.618 1042.87 33.3508 1041.64 34.7757C1040.4 36.2005 1039.8 37.951 1039.8 40.0273C1039.8 42.1442 1040.44 43.854 1041.76 45.1974ZM1046.47 33.5135C1045.71 33.5135 1045.15 34.0021 1044.71 34.9791C1044.27 35.9561 1044.07 37.0553 1044.03 38.2766L1048.26 38.1952C1048.26 35.0605 1047.67 33.5135 1046.47 33.5135ZM1063.24 33.3508C1062.16 32.8623 1060.81 32.5773 1059.17 32.5773C1057.49 32.5773 1056.17 33.0251 1055.18 33.88C1054.18 34.7349 1053.66 35.7934 1053.66 37.0554C1053.66 38.1546 1053.98 39.0095 1054.58 39.6201C1055.18 40.2308 1056.13 40.76 1057.37 41.2078C1058.49 41.6149 1059.29 42.022 1059.69 42.3884C1060.09 42.7955 1060.33 43.2433 1060.33 43.854C1060.33 44.4239 1060.13 44.9531 1059.69 45.3602C1059.29 45.808 1058.73 46.0116 1058.01 46.0116C1056.25 46.0116 1054.94 44.7089 1054.02 42.1034L1053.34 42.307L1053.5 46.378C1054.94 46.9479 1056.53 47.2329 1058.29 47.2329C1060.13 47.2329 1061.53 46.8258 1062.56 45.9709C1063.6 45.1567 1064.12 43.9761 1064.12 42.5105C1064.12 41.5335 1063.88 40.7193 1063.36 40.1087C1062.84 39.498 1062 38.9688 1060.81 38.4803C1059.49 37.9917 1058.57 37.5439 1058.09 37.1368C1057.61 36.7297 1057.37 36.2412 1057.37 35.6306C1057.37 35.0199 1057.53 34.5314 1057.89 34.1243C1058.25 33.7172 1058.69 33.5544 1059.25 33.5544C1060.85 33.5544 1062 34.7349 1062.72 37.0554L1063.4 36.8519L1063.24 33.3508ZM1022.98 32.5773C1023.66 32.5773 1024.26 32.6994 1024.82 32.9844L1023.34 36.7704C1022.38 36.2005 1021.47 35.9562 1020.67 36.0377C1019.87 36.1191 1019.35 36.3633 1019.11 36.7704C1018.91 39.3759 1018.95 41.8999 1019.19 44.2611C1019.27 45.3602 1019.71 45.9709 1020.47 46.0523L1021.55 46.1337V46.9072H1013.08V46.1337L1013.68 46.0523C1014.44 45.9302 1014.88 45.3602 1014.96 44.2611C1015.19 41.4114 1015.19 38.7245 1014.96 36.2005C1014.88 35.1013 1014.44 34.4907 1013.68 34.4093L1013.08 34.3686V33.7986L1019.15 32.5773L1019.11 35.8341C1019.55 34.7757 1020.11 34.0022 1020.87 33.4322C1021.63 32.8623 1022.3 32.5773 1022.98 32.5773Z" fill="#B3B3B3"/>
<path fill-rule="evenodd" clip-rule="evenodd" d="M747.421 36.715L747.711 35.303H751.688L749.181 48.7055H745.18L745.445 47.2695H745.373C744.433 48.5858 742.625 49.1841 741.058 49.1841C736.768 49.1841 734.912 45.8096 735.611 41.9803C736.43 37.6006 740.118 34.8243 743.734 34.8243C745.975 34.8243 746.988 35.9253 747.349 36.715H747.421ZM742.383 45.4266C744.89 45.4266 746.143 43.2966 746.408 41.9803C746.698 40.4007 745.926 38.6057 743.636 38.5818C741.298 38.5818 739.924 40.4964 739.635 42.0281C739.418 43.2726 739.924 45.4266 742.383 45.4266Z" fill="#B3B3B3"/>
<path d="M753.954 35.303H757.714L757.449 36.715H757.521C758.004 36.0689 758.944 34.8243 761.258 34.8243L760.51 38.8929C758.606 38.9169 757.232 39.2998 756.871 41.358L755.497 48.7055H751.447L753.954 35.303Z" fill="#B3B3B3"/>
<path d="M763.981 30.0618H768.031L766.127 40.1615H766.199L770.875 35.3031H775.624L769.453 41.1906L772.996 48.7055H768.417L765.813 42.2436H765.741L764.56 48.7055H760.486L763.981 30.0618Z" fill="#B3B3B3"/>
<path fill-rule="evenodd" clip-rule="evenodd" d="M773.695 42.0521C774.37 38.3186 778.009 34.8243 782.107 34.8243C786.229 34.8243 788.639 38.0792 787.868 42.1718C787.772 42.6743 787.699 42.9137 787.579 43.2248H777.455C777.383 44.8283 778.564 45.7617 780.131 45.7617C781.384 45.7617 782.155 45.2112 782.83 44.5172H786.952C786.036 46.025 784.855 47.1737 783.577 47.9396C782.324 48.7533 780.902 49.1602 779.528 49.1602C775.647 49.1602 772.948 46.025 773.695 42.0521ZM781.529 38.2228C779.432 38.2228 778.323 39.7306 778.01 40.5203H784.132C784.132 39.7306 783.626 38.2228 781.529 38.2228Z" fill="#B3B3B3"/>
<path d="M730.26 30.0618L723.126 40.688H723.077V30.0618H719.63L707 48.7055H711.893L718.98 38.0793H719.052V48.7055H722.523L729.609 38.0793H729.682V48.7055H733.731V30.0618H730.26Z" fill="#B3B3B3"/>
<path d="M798.113 35.3029H795.558L796.305 31.3301H792.762L792.472 32.8618C792.159 34.6089 791.05 35.1354 789.58 35.3029H789.556L788.953 38.3424H790.954L789.025 48.7054H793.051L794.979 38.3424H797.558L798.113 35.3029Z" fill="#B3B3B3"/>
<path fill-rule="evenodd" clip-rule="evenodd" d="M819.734 29.8319L827.598 25L828.828 29.8319H826.826L814.234 48.7465H810.761V37.9659H810.689L803.573 48.7465H800.051V29.8319H804.103V40.6125H804.176L811.292 29.8319H814.765V40.6125H814.837L821.953 29.8319H819.734ZM852.951 49.2078C856.593 49.2078 859.753 46.6826 861.08 43.599V43.5747H856.931C856.352 44.4245 855.339 45.3958 853.675 45.3958C851.745 45.3958 850.732 43.9146 851.093 41.9236C851.455 39.9569 853.023 38.3786 854.929 38.4758C856.641 38.4758 857.245 39.447 857.51 40.3939H861.611C861.538 37.0675 859.078 34.6637 855.508 34.6637C851.455 34.6637 847.789 37.9173 847.041 41.8993C846.317 45.9542 848.85 49.2078 852.951 49.2078ZM835.269 48.7465H831.265L831.53 47.2896H831.458C830.517 48.6251 828.708 49.2321 827.14 49.2321C822.847 49.2321 820.989 45.8328 821.689 41.9236C822.485 37.4803 826.2 34.6637 829.818 34.6637C832.037 34.6637 833.074 35.7563 833.436 36.5819H833.508L833.798 35.1493H837.802L835.269 48.7465ZM832.495 41.9479C832.23 43.259 830.976 45.4443 828.467 45.4443C826.007 45.4443 825.5 43.259 825.717 41.9964C826.007 40.4425 827.406 38.5 829.721 38.5C832.013 38.5 832.785 40.3211 832.495 41.9479ZM847.884 35.1493H845.352L846.099 31.1187H842.553L842.264 32.6727C841.95 34.4452 840.841 34.9793 839.369 35.1493H839.321L838.742 38.2329H840.744L838.815 48.7465H842.843L844.773 38.2329H847.354L847.884 35.1493ZM868.919 29.8318H864.891L861.441 48.7221H865.47L866.845 41.1951C866.965 40.5153 867.351 38.4757 869.619 38.4757C871.766 38.4757 871.38 40.6852 871.259 41.3408L869.908 48.7464H873.937L875.311 41.1466C875.77 38.7185 875.866 37.5288 874.998 36.1933C874.322 35.1493 872.851 34.6636 871.573 34.6636C869.788 34.6636 868.63 35.3192 867.761 36.5818H867.689L868.919 29.8318Z" fill="#B3B3B3"/>
<path fill-rule="evenodd" clip-rule="evenodd" d="M519 49.3021C519 51.8799 520.522 53.0171 522.307 53.0171H522.307C528.361 53.0171 533.158 42.2604 533.158 32.9303C533.158 24.2596 528.36 22 526.336 22C523.82 22 521.033 24.4123 521.033 29.7705C521.033 35.5037 523.854 40.6692 528.27 43.5042C526.047 42.6984 523.905 41.4461 523.905 41.4461C522.374 42.3007 519 45.3227 519 49.3021ZM564.168 46.8151H566.259H566.26V38.6513C566.26 35.0543 564.823 33.2557 561.95 33.2557C560.029 33.2557 558.584 34.1706 557.616 35.9989C557.369 35.1795 556.915 34.5177 556.251 34.0129C555.589 33.5081 554.811 33.2557 553.918 33.2557C552.142 33.2557 550.791 34.0579 549.864 35.6624H549.813V33.5664H547.723V46.8151H549.813V39.2594C549.813 38.0094 550.11 36.9932 550.706 36.2128C551.301 35.4318 552.058 35.0417 552.975 35.0417C554.956 35.0417 555.946 36.344 555.946 38.9487V46.8151H558.037V39.2594C558.037 38.1034 558.349 37.1118 558.974 36.2838C559.599 35.4557 560.357 35.0417 561.249 35.0417C562.303 35.0417 563.053 35.3689 563.499 36.0247C563.945 36.6805 564.168 37.7411 564.168 39.2077V46.8151ZM589.758 46.8151H587.667V39.2594C587.667 36.4474 586.655 35.0417 584.633 35.0417C583.587 35.0417 582.723 35.4405 582.039 36.2387C581.354 37.0363 581.012 38.0438 581.012 39.2594V46.8151H578.922V33.5664H581.012V35.7657H581.063C582.049 34.0924 583.477 33.2557 585.347 33.2557C586.774 33.2557 587.867 33.7235 588.623 34.6594C589.38 35.5954 589.758 36.9475 589.758 38.7156V46.8151ZM568.543 44.0402V44.0401H568.543C568.543 44.0401 568.543 44.0402 568.543 44.0402ZM568.543 44.0402V46.313C568.543 46.313 569.653 47.1271 571.819 47.1271C575.106 47.1271 576.551 45.2656 576.551 43.2346C576.551 40.8085 574.777 40.039 573.184 39.3482C571.887 38.7854 570.71 38.2748 570.71 36.9634C570.71 35.8658 571.572 35.0708 573.018 35.0708C574.706 35.0708 575.95 35.9849 575.95 35.9849V33.881C575.95 33.881 574.794 33.2312 573.127 33.2312C570.316 33.2312 568.564 35.0125 568.564 37.1529C568.564 39.5609 570.347 40.376 571.94 41.1042C573.225 41.692 574.387 42.2233 574.387 43.4903C574.387 44.794 573.331 45.2663 571.965 45.2663C570.018 45.2663 568.555 44.0501 568.543 44.0402Z" fill="#B3B3B3"/>
<path d="M529.662 50.1649C529.662 51.518 530.128 52.0478 530.84 52.0478C532.622 52.0478 535.461 47.8269 535.353 43.3954C538.055 40.5027 541.294 35.9713 541.294 32.3419C541.294 31.4633 541.048 30.7235 540.022 30.7235C538.453 30.7235 536.212 33.4674 534.79 36.1921C533.419 39.0149 532.136 42.2344 530.433 46.6532C530.036 47.7616 529.662 49.104 529.662 50.165L529.662 50.1649Z" fill="#B3B3B3"/>
<g clip-path="url(#clip0_986_194)">
<path d="M23 110.916H34.4583H41.4167V104.177L23 110.916Z" fill="#B3B3B3"/>
<path d="M41.416 104.176V128L50.1243 101L41.416 104.176Z" fill="#B3B3B3"/>
<path d="M41.4173 110.916H34.459L41.4173 127.98V110.916Z" fill="#B3B3B3"/>
<path d="M23 110.916L36.25 115.294L34.4583 110.916H23Z" fill="#B3B3B3"/>
<path d="M65.209 121.708C65.1048 121.81 64.9382 121.932 64.709 122.075C64.4798 122.217 64.1673 122.38 63.7923 122.523C63.4173 122.665 62.959 122.808 62.3965 122.91C61.8548 123.011 61.2298 123.072 60.5215 123.072C59.1673 123.072 57.9798 122.848 56.9798 122.441C55.9798 122.014 55.1673 121.423 54.5215 120.649C53.8757 119.876 53.3965 118.98 53.1048 117.941C52.7923 116.903 52.6465 115.742 52.6465 114.5C52.6465 113.258 52.8131 112.097 53.1465 111.038C53.4798 109.98 53.959 109.063 54.6257 108.29C55.2715 107.516 56.1048 106.905 57.084 106.477C58.0632 106.05 59.2298 105.826 60.5632 105.826C61.209 105.826 61.8132 105.887 62.334 105.989C62.8548 106.111 63.334 106.233 63.7298 106.396C64.1257 106.559 64.459 106.722 64.709 106.885C64.9798 107.048 65.1673 107.21 65.2923 107.312C65.4382 107.434 65.584 107.597 65.6882 107.781C65.7923 107.964 65.8548 108.167 65.8548 108.371C65.8548 108.697 65.7298 109.023 65.4798 109.348C65.2298 109.674 64.959 109.98 64.6465 110.265C64.4382 110.061 64.209 109.857 63.959 109.654C63.709 109.45 63.4173 109.267 63.1048 109.104C62.7923 108.941 62.4382 108.819 62.0423 108.717C61.6465 108.615 61.209 108.554 60.709 108.554C59.8548 108.554 59.1257 108.717 58.5423 109.063C57.959 109.41 57.5006 109.837 57.1465 110.387C56.7923 110.937 56.5423 111.548 56.3965 112.24C56.2507 112.932 56.1673 113.645 56.1673 114.378C56.1673 115.152 56.2507 115.885 56.3965 116.597C56.5423 117.31 56.8132 117.921 57.1882 118.471C57.5632 119.02 58.0423 119.448 58.6465 119.774C59.2507 120.1 59.9798 120.262 60.8757 120.262C61.3548 120.262 61.7715 120.201 62.1673 120.1C62.5632 119.977 62.9173 119.835 63.209 119.672C63.5215 119.509 63.7715 119.326 64.0007 119.163C64.2298 118.98 64.4173 118.817 64.5632 118.695C64.6673 118.817 64.7715 118.959 64.9173 119.122C65.0632 119.285 65.1882 119.468 65.2923 119.631C65.4173 119.814 65.5007 119.998 65.6048 120.181C65.6882 120.364 65.7298 120.527 65.7298 120.67C65.7298 120.894 65.6882 121.057 65.6048 121.219C65.5215 121.362 65.3757 121.525 65.209 121.708ZM78.209 119.814C78.209 121.118 78.3965 122.075 78.7923 122.665C78.4798 122.787 78.209 122.869 77.9382 122.91C77.6673 122.95 77.3965 122.991 77.1048 122.991C76.5007 122.991 76.0423 122.869 75.7298 122.645C75.4173 122.421 75.209 122.075 75.1257 121.647C74.7507 122.034 74.2715 122.36 73.6465 122.624C73.0423 122.889 72.2923 123.011 71.4173 123.011C70.959 123.011 70.5007 122.95 70.0423 122.828C69.584 122.706 69.1673 122.502 68.7923 122.217C68.4173 121.932 68.1257 121.566 67.8757 121.097C67.6465 120.629 67.5215 120.059 67.5215 119.387C67.5215 118.552 67.7298 117.86 68.1465 117.33C68.5632 116.801 69.084 116.394 69.709 116.088C70.334 115.783 71.0215 115.579 71.7298 115.457C72.459 115.335 73.1257 115.274 73.7298 115.233C73.9382 115.213 74.1257 115.213 74.334 115.213H74.8757V114.765C74.8757 114.133 74.709 113.686 74.3548 113.4C74.0007 113.136 73.4382 112.993 72.6673 112.993C71.9382 112.993 71.2923 113.115 70.7298 113.339C70.1673 113.563 69.6048 113.828 69.0632 114.133C68.834 113.848 68.6257 113.543 68.5007 113.197C68.3548 112.851 68.2923 112.606 68.2923 112.443C68.2923 112.219 68.4173 111.995 68.6882 111.772C68.959 111.548 69.3132 111.364 69.7715 111.181C70.2298 110.998 70.7507 110.876 71.3548 110.753C71.9382 110.652 72.5632 110.591 73.2298 110.591C74.1465 110.591 74.9173 110.672 75.5423 110.855C76.1673 111.038 76.6882 111.324 77.084 111.69C77.4798 112.077 77.7715 112.545 77.9382 113.115C78.1048 113.686 78.1882 114.357 78.1882 115.111L78.209 119.814ZM74.959 116.943H74.6048C74.4798 116.943 74.3757 116.943 74.2507 116.964C73.834 117.005 73.4173 117.045 73.0007 117.106C72.584 117.167 72.209 117.29 71.8965 117.453C71.584 117.615 71.3132 117.839 71.1048 118.104C70.8965 118.369 70.7923 118.715 70.7923 119.122C70.7923 119.591 70.9173 119.977 71.1882 120.303C71.459 120.629 71.9173 120.792 72.5632 120.792C72.8757 120.792 73.1882 120.751 73.4798 120.67C73.7715 120.588 74.0215 120.486 74.2507 120.344C74.4798 120.201 74.6465 120.059 74.7715 119.916C74.8965 119.753 74.959 119.611 74.959 119.489V116.943ZM84.5215 112.057C84.7923 111.751 85.209 111.425 85.7923 111.1C86.3757 110.774 87.084 110.611 87.959 110.611C88.584 110.611 89.1882 110.713 89.7507 110.916C90.3132 111.12 90.8132 111.466 91.2507 111.914C91.6882 112.382 92.0423 112.993 92.2923 113.747C92.5632 114.5 92.6882 115.437 92.6882 116.557C92.6882 117.839 92.5423 118.919 92.2298 119.753C91.9173 120.588 91.5423 121.26 91.0632 121.729C90.584 122.217 90.0423 122.563 89.459 122.767C88.8757 122.971 88.2715 123.072 87.6882 123.072C87.209 123.072 86.7715 123.011 86.4173 122.91C86.0632 122.808 85.7507 122.686 85.5007 122.543C85.2507 122.421 85.0632 122.278 84.9173 122.156C84.7923 122.034 84.6882 121.932 84.6673 121.891V128H81.209V110.977C81.2923 110.957 81.3965 110.937 81.5215 110.937C81.6257 110.916 81.7507 110.916 81.8757 110.896C82.0215 110.896 82.1673 110.876 82.3548 110.876C82.9173 110.876 83.3965 110.957 83.7923 111.14C84.1673 111.324 84.4173 111.629 84.5215 112.057ZM89.1048 116.638C89.1048 116.149 89.0632 115.681 88.9798 115.253C88.8965 114.826 88.7507 114.459 88.5632 114.133C88.3757 113.828 88.1048 113.584 87.7715 113.4C87.4382 113.217 87.0423 113.136 86.5632 113.136C85.8548 113.136 85.3548 113.278 85.084 113.523C84.8132 113.787 84.6673 114.072 84.6673 114.398V119.672C84.7923 119.814 85.0423 119.957 85.3965 120.14C85.7507 120.324 86.1465 120.405 86.6048 120.405C87.459 120.405 88.084 120.079 88.5007 119.407C88.8965 118.756 89.1048 117.839 89.1048 116.638ZM95.3548 120.914C95.2298 120.588 95.1673 120.242 95.1257 119.876C95.084 119.509 95.084 119.143 95.084 118.776V107.272C95.209 107.251 95.334 107.231 95.459 107.231C95.584 107.21 95.709 107.21 95.834 107.19C95.959 107.19 96.1048 107.17 96.2298 107.17C96.5007 107.17 96.7715 107.19 97.0423 107.251C97.3132 107.292 97.5632 107.394 97.7715 107.557C98.0007 107.699 98.1673 107.903 98.3132 108.167C98.4382 108.432 98.5215 108.758 98.5215 109.165V110.937H102.084V113.441H98.5423V118.735C98.5423 119.896 99.0215 120.466 99.9798 120.466C100.209 120.466 100.438 120.425 100.646 120.364C100.855 120.283 101.042 120.201 101.209 120.12C101.376 120.038 101.521 119.937 101.646 119.835C101.771 119.733 101.855 119.652 101.917 119.611C102.167 119.977 102.376 120.283 102.501 120.548C102.626 120.812 102.709 121.057 102.709 121.301C102.709 121.525 102.626 121.729 102.438 121.932C102.251 122.136 102.001 122.339 101.688 122.502C101.376 122.686 100.98 122.828 100.521 122.93C100.063 123.032 99.5632 123.093 99.0215 123.093C97.9798 123.093 97.1465 122.889 96.5632 122.502C96.0215 122.075 95.6048 121.566 95.3548 120.914ZM110.834 120.588C111.251 120.588 111.626 120.548 111.959 120.446C112.271 120.364 112.563 120.242 112.834 120.12C113.084 119.998 113.313 119.835 113.501 119.692C113.688 119.529 113.855 119.387 114.001 119.265C114.209 119.509 114.417 119.835 114.646 120.222C114.876 120.609 114.98 120.934 114.98 121.179C114.98 121.545 114.771 121.871 114.355 122.176C114.001 122.441 113.501 122.665 112.834 122.869C112.188 123.052 111.417 123.154 110.542 123.154C109.751 123.154 108.959 123.052 108.188 122.848C107.417 122.645 106.73 122.299 106.126 121.81C105.521 121.321 105.042 120.649 104.667 119.814C104.292 118.98 104.105 117.921 104.105 116.658C104.105 115.62 104.271 114.724 104.605 113.971C104.938 113.217 105.376 112.586 105.917 112.097C106.459 111.609 107.084 111.242 107.792 110.998C108.48 110.774 109.188 110.652 109.917 110.652C110.855 110.652 111.667 110.794 112.334 111.079C113.001 111.364 113.521 111.751 113.938 112.24C114.355 112.729 114.646 113.278 114.834 113.91C115.021 114.541 115.105 115.192 115.105 115.885V116.231C115.105 116.373 115.105 116.495 115.084 116.658C115.084 116.801 115.063 116.943 115.063 117.086C115.063 117.229 115.042 117.33 115.021 117.412H107.542C107.605 118.328 107.896 119.081 108.417 119.692C108.917 120.283 109.73 120.588 110.834 120.588ZM112.001 115.559C112.001 114.765 111.834 114.113 111.521 113.624C111.209 113.136 110.646 112.871 109.834 112.871C109.126 112.871 108.584 113.115 108.167 113.584C107.751 114.052 107.542 114.704 107.542 115.559H112.001ZM121.126 112.118C121.23 111.975 121.355 111.812 121.521 111.629C121.688 111.446 121.896 111.283 122.146 111.14C122.396 110.998 122.667 110.876 122.959 110.774C123.251 110.672 123.563 110.631 123.917 110.631C124.126 110.631 124.334 110.652 124.563 110.672C124.792 110.713 125.001 110.774 125.188 110.855C125.376 110.937 125.542 111.059 125.667 111.222C125.792 111.385 125.855 111.568 125.855 111.792C125.855 112.158 125.771 112.566 125.584 113.034C125.396 113.502 125.209 113.91 125.021 114.235C124.73 114.011 124.438 113.828 124.167 113.706C123.876 113.584 123.542 113.523 123.146 113.523C122.626 113.523 122.188 113.665 121.834 113.971C121.48 114.276 121.292 114.622 121.292 115.05V123.072H117.834V110.957C117.917 110.937 118.021 110.916 118.146 110.916C118.251 110.896 118.376 110.896 118.501 110.876C118.626 110.876 118.792 110.855 118.98 110.855C119.521 110.855 120.001 110.957 120.396 111.161C120.771 111.385 121.021 111.69 121.126 112.118ZM130.938 112.118C131.042 111.975 131.167 111.812 131.334 111.629C131.501 111.446 131.709 111.283 131.959 111.14C132.209 110.998 132.48 110.876 132.771 110.774C133.063 110.672 133.376 110.631 133.73 110.631C133.938 110.631 134.146 110.652 134.376 110.672C134.605 110.713 134.813 110.774 135.001 110.855C135.188 110.937 135.355 111.059 135.48 111.222C135.605 111.385 135.667 111.568 135.667 111.792C135.667 112.158 135.584 112.566 135.396 113.034C135.209 113.502 135.021 113.91 134.834 114.235C134.542 114.011 134.251 113.828 133.98 113.706C133.688 113.584 133.355 113.523 132.959 113.523C132.438 113.523 132.001 113.665 131.646 113.971C131.292 114.276 131.105 114.622 131.105 115.05V123.072H127.646V110.957C127.73 110.937 127.834 110.916 127.959 110.916C128.063 110.896 128.188 110.896 128.313 110.876C128.438 110.876 128.605 110.855 128.792 110.855C129.334 110.855 129.813 110.957 130.209 111.161C130.584 111.385 130.834 111.69 130.938 112.118ZM147.417 119.814C147.417 121.118 147.605 122.075 148.001 122.665C147.688 122.787 147.417 122.869 147.146 122.91C146.876 122.95 146.605 122.991 146.313 122.991C145.709 122.991 145.251 122.869 144.938 122.645C144.626 122.421 144.417 122.075 144.334 121.647C143.959 122.034 143.48 122.36 142.855 122.624C142.251 122.889 141.501 123.011 140.626 123.011C140.167 123.011 139.709 122.95 139.251 122.828C138.792 122.706 138.376 122.502 138.001 122.217C137.626 121.932 137.334 121.566 137.084 121.097C136.855 120.629 136.73 120.059 136.73 119.387C136.73 118.552 136.938 117.86 137.355 117.33C137.771 116.801 138.292 116.394 138.917 116.088C139.542 115.783 140.23 115.579 140.938 115.457C141.667 115.335 142.334 115.274 142.938 115.233C143.146 115.213 143.334 115.213 143.542 115.213H144.084V114.765C144.084 114.133 143.917 113.686 143.563 113.4C143.209 113.136 142.646 112.993 141.876 112.993C141.146 112.993 140.501 113.115 139.938 113.339C139.376 113.563 138.813 113.828 138.271 114.133C138.042 113.848 137.834 113.543 137.709 113.197C137.563 112.851 137.501 112.606 137.501 112.443C137.501 112.219 137.626 111.995 137.896 111.772C138.167 111.548 138.521 111.364 138.98 111.181C139.438 110.998 139.959 110.876 140.563 110.753C141.146 110.652 141.771 110.591 142.438 110.591C143.355 110.591 144.126 110.672 144.751 110.855C145.376 111.038 145.896 111.324 146.292 111.69C146.688 112.077 146.98 112.545 147.146 113.115C147.313 113.686 147.396 114.357 147.396 115.111L147.417 119.814ZM144.167 116.943H143.813C143.688 116.943 143.584 116.943 143.459 116.964C143.042 117.005 142.626 117.045 142.209 117.106C141.792 117.167 141.417 117.29 141.105 117.453C140.792 117.615 140.521 117.839 140.313 118.104C140.105 118.369 140.001 118.715 140.001 119.122C140.001 119.591 140.126 119.977 140.396 120.303C140.667 120.629 141.126 120.792 141.771 120.792C142.084 120.792 142.396 120.751 142.688 120.67C142.98 120.588 143.23 120.486 143.459 120.344C143.688 120.201 143.855 120.059 143.98 119.916C144.105 119.753 144.167 119.611 144.167 119.489V116.943Z" fill="#B3B3B3"/>
</g>
<line opacity="0.5" x1="195.5" y1="2.18557e-08" x2="195.5" y2="152" stroke="#B3B3B3"/>
<line opacity="0.5" x1="1111" y1="76.5" x2="-5.58495e-05" y2="76.5" stroke="#B3B3B3"/>
<line opacity="0.5" x1="432.5" y1="2.18557e-08" x2="432.5" y2="152" stroke="#B3B3B3"/>
<line opacity="0.5" x1="669.5" y1="2.18557e-08" x2="669.5" y2="152" stroke="#B3B3B3"/>
<line opacity="0.5" x1="906.5" y1="2.18557e-08" x2="906.5" y2="152" stroke="#B3B3B3"/>
<defs>
<clipPath id="clip0_986_194">
<rect width="125" height="27" fill="white" transform="translate(23 101)"/>
</clipPath>
</defs>
</svg>
